<svg data-v-0dd9719b="" version="1.0" xmlns="http://www.w3.org/2000/svg" xmlns:xlink="http://www.w3.org/1999/xlink" width="100%" height="100%" viewBox="0 0 340.000000 250.000000" preserveAspectRatio="xMidYMid meet" color-interpolation-filters="sRGB" style="margin: auto;"> <rect data-v-0dd9719b="" x="0" y="0" width="100%" height="100%" fill="#ffffff" fill-opacity="1" class="background"></rect> <rect data-v-0dd9719b="" x="0" y="0" width="100%" height="100%" fill="url(#watermark)" fill-opacity="1" class="watermarklayer"></rect> <g data-v-0dd9719b="" class="iconmbgsvg" transform="translate(60.30999755859375,75.36468887329102)"><g fill="#cd8c2a" hollow-target="text"><g mask="url(#ed75f8ee-9b3a-4664-92ca-0b4d759ef806)"><g><rect fill="#cd8c2a" fill-opacity="0" stroke-width="2" x="0" y="0" width="95" height="99.2706221655625" class="image-rect"></rect> <svg x="0" y="0" width="95" height="99.2706221655625" filtersec="colorsb2614064365" class="image-svg-svg primary" style="overflow: visible;"><svg viewBox="0 0.531999945640564 190.4739990234375 199.03599548339844" xmlns="http://www.w3.org/2000/svg"><g fill="none" fill-rule="evenodd"><path d="M116.992 179.84c-42.441-1.885-76.273-36.885-76.273-79.791 0-42.907 33.832-77.907 76.273-79.79a80.94 80.94 0 0 0-3.64-.086c-44.114 0-79.875 35.762-79.875 79.876 0 44.114 35.761 79.875 79.875 79.875 1.22 0 2.433-.03 3.64-.084" fill="#1c085d"></path><path d="M113.436 187.04c-48.044 0-86.99-38.947-86.99-86.99 0-48.045 38.946-86.992 86.99-86.992 33.448 0 62.48 18.88 77.038 46.56C174.976 24.806 140.084.532 99.518.532 44.555.531 0 45.087 0 100.05s44.555 99.518 99.518 99.518c40.566 0 75.458-24.274 90.956-59.088-14.557 27.681-43.59 46.561-77.038 46.561" fill="#cd8c2a"></path></g></svg></svg> <!----></g></g> <g transform="translate(41.6199951171875,32.02343559265137)"><g data-gra="path-name" fill-rule="" class="tp-name" transform="translate(0,0)"><g transform="scale(1)"><g><path d="M34.88-22.86L34.88-20.88 30.42-20.88 30.42 3.64Q30.42 4.57 29.79 5.2 29.16 5.83 28.22 5.83L28.22 5.83 7.78 5.83Q6.84 5.83 6.21 5.2 5.58 4.57 5.58 3.64L5.58 3.64 5.58-20.88 1.12-20.88 1.12-22.86 5.58-22.86 5.58-27.68 11.27-27.68 11.27-22.86 24.73-22.86 24.73-27.68 30.42-27.68 30.42-22.86 34.88-22.86ZM24.73-9.5L24.73-20.88 11.27-20.88 11.27-9.5 24.73-9.5ZM11.81 3.85L24.19 3.85Q24.41 3.85 24.57 3.69 24.73 3.53 24.73 3.31L24.73 3.31 24.73-7.52 11.27-7.52 11.27 3.31Q11.27 3.53 11.43 3.69 11.59 3.85 11.81 3.85L11.81 3.85ZM68.08-18.36L70.52-18.36 70.52-16.34 68.08-16.34 68.08-12.6Q68.08-11.66 67.45-11.03 66.82-10.4 65.88-10.4L65.88-10.4 56.48-10.4 56.48 6.08 50.8 6.08 50.8-10.4 39.85-10.4 39.85-12.42 50.8-12.42 50.8-16.34 38.2-16.34 38.2-18.36 50.8-18.36 50.8-22.28 39.85-22.28 39.85-24.3 50.8-24.3 50.8-27.68 56.48-27.68 56.48-24.3 65.88-24.3Q66.82-24.3 67.45-23.67 68.08-23.04 68.08-22.1L68.08-22.1 68.08-18.36ZM56.48-22.28L56.48-18.36 62.39-18.36 62.39-21.74Q62.39-21.96 62.23-22.12 62.06-22.28 61.85-22.28L61.85-22.28 56.48-22.28ZM62.39-12.96L62.39-16.34 56.48-16.34 56.48-12.42 61.85-12.42Q62.06-12.42 62.23-12.58 62.39-12.74 62.39-12.96L62.39-12.96ZM39.71-8.78L45.14-8.78 43.92 2.48Q43.85 3.31 43.34 3.92 42.84 4.54 42.01 4.75L42.01 4.75 37.12 6.08 37.12 4.07 37.94 3.85Q38.34 3.74 38.41 3.28L38.41 3.28 39.71-8.78ZM63.07 6.08L63.07-8.78 68.51-8.78 68.51 6.08 63.07 6.08ZM45.04 3.96L46.08-7.49 49.97-7.49 48.92 3.96 45.04 3.96ZM57.24-7.49L61.13-7.49 62.17 3.96 58.28 3.96 57.24-7.49ZM104.11 3.42L106.88 4.07 106.88 6.08 99.14 4.75Q97.56 4.46 96.52 3.2L96.52 3.2 94 0.22 91.69 3.1Q90.72 4.32 89.1 4.64L89.1 4.64 81.61 6.08 81.61 4.07 83.95 3.56Q84.49 3.46 84.78 3.06L84.78 3.06 90.5-4 83.45-12.42 80.78 2.02Q80.57 3.24 79.72 4.09 78.88 4.93 77.65 5.18L77.65 5.18 73.12 6.08 73.12 4.07 73.91 3.89Q74.3 3.82 74.56 3.53 74.81 3.24 74.88 2.84L74.88 2.84 79.6-22.39 73.4-22.39 73.4-24.41 79.96-24.41 80.57-27.68 86.26-27.68 85.64-24.41 106.52-24.41 106.52-22.39 85.28-22.39 84.38-17.53 103.21-17.53Q104.04-17.53 104.65-17.15 105.26-16.78 105.53-16.2 105.8-15.62 105.73-14.92 105.66-14.22 105.12-13.57L105.12-13.57 97.38-4 103.32 2.95Q103.61 3.28 104.11 3.42L104.11 3.42ZM89.03-13.79L93.85-8.14 99.18-14.72Q99.4-14.98 99.27-15.25 99.14-15.52 98.82-15.52L98.82-15.52 84.02-15.52 83.7-13.79 89.03-13.79ZM115.16-8.39L109.12-8.39 114.8-16.24 109.15-16.24 109.15-18.25 115.99-18.25 115.99-23.65 115.6-23.65 114.48-20.3 109.15-20.3 111.67-27.68 116.96-27.68 116.28-25.67 126.61-25.67 126.61-23.65 121.68-23.65 121.68-18.25 127.69-18.25 127.69-16.24 121.07-16.24 119.81-14.54 123.52-14.54 127.69-8.39 122-8.39 118.76-13.18 115.16-8.39ZM130.75-26.86L140.15-26.86Q141.08-26.86 141.71-26.24 142.34-25.63 142.34-24.66L142.34-24.66 142.34-10.84Q142.34-9.9 141.71-9.27 141.08-8.64 140.15-8.64L140.15-8.64 130.75-8.64Q129.82-8.64 129.19-9.27 128.56-9.9 128.56-10.84L128.56-10.84 128.56-24.66Q128.56-25.63 129.19-26.24 129.82-26.86 130.75-26.86L130.75-26.86ZM137.38-11.2L137.38-24.3Q137.38-24.52 137.21-24.68 137.05-24.84 136.84-24.84L136.84-24.84 134.06-24.84Q133.85-24.84 133.69-24.68 133.52-24.52 133.52-24.3L133.52-24.3 133.52-11.2Q133.52-10.98 133.69-10.82 133.85-10.66 134.06-10.66L134.06-10.66 136.84-10.66Q137.05-10.66 137.21-10.82 137.38-10.98 137.38-11.2L137.38-11.2ZM113.65-6.84L138.31-6.84Q139.25-6.84 139.88-6.23 140.51-5.62 140.51-4.64L140.51-4.64 140.51 3.53Q140.51 4.5 139.88 5.11 139.25 5.72 138.31 5.72L138.31 5.72 113.65 5.72Q112.72 5.72 112.09 5.11 111.46 4.5 111.46 3.53L111.46 3.53 111.46-4.64Q111.46-5.62 112.09-6.23 112.72-6.84 113.65-6.84L113.65-6.84ZM134.42-4.82L117.58-4.82Q117.36-4.82 117.2-4.66 117.04-4.5 117.04-4.28L117.04-4.28 117.04-1.58 134.96-1.58 134.96-4.28Q134.96-4.5 134.8-4.66 134.64-4.82 134.42-4.82L134.42-4.82ZM117.58 3.71L134.42 3.71Q134.64 3.71 134.8 3.55 134.96 3.38 134.96 3.17L134.96 3.17 134.96 0.43 117.04 0.43 117.04 3.17Q117.04 3.38 117.2 3.55 117.36 3.71 117.58 3.71L117.58 3.71ZM176.9-27.14L176.9-25.13 147.13-25.13 147.13-27.14 176.9-27.14ZM178.88 6.08L173.2 6.08 172.76 4.39 149 5.76Q148.28 5.8 147.8 5.53 147.31 5.26 147.04 4.79 146.77 4.32 146.74 3.71 146.7 3.1 146.88 2.45L146.88 2.45 150.77-11.3 145.84-11.3 145.84-13.32 178.16-13.32 178.16-11.3 156.46-11.3 152.46 2.77Q152.39 3.06 152.5 3.26 152.6 3.46 152.89 3.42L152.89 3.42 172.26 2.38 169.49-8.42 175.18-8.42 178.88 6.08Z" transform="translate(-1.1200000047683716, 27.68000030517578)"></path></g> <!----> <!----> <!----> <!----> <!----> <!----> <!----></g></g> <g data-gra="path-slogan" fill-rule="" class="tp-slogan" fill="#1c085d" transform="translate(5,38.76000213623047)"><rect x="0" height="1" y="3.2300000190734863" width="35.0693473815918"></rect> <rect height="1" y="3.2300000190734863" width="31.069347381591797" x="136.6906623840332"></rect> <g transform="translate(38.0693473815918,0)"><g transform="scale(1)"><path d="M6.09-3.01L3.91-3.01L3.91-3.83L7.03-3.83L7.03 0L6.41 0L6.17-0.90Q5.35 0.08 3.83 0.12L3.83 0.12Q2.38 0.12 1.60-0.63L1.60-0.63Q0.43-1.72 0.47-3.63L0.47-3.63Q0.74-7.19 3.87-7.34L3.87-7.34Q6.52-7.19 6.91-5L6.91-5L5.98-5Q5.59-6.48 3.83-6.52L3.83-6.52Q1.60-6.37 1.48-3.59L1.48-3.59Q1.48-0.63 3.87-0.63L3.87-0.63Q4.73-0.63 5.35-1.09L5.35-1.09Q6.13-1.72 6.09-3.01L6.09-3.01ZM13.24 0L12.54-2.07L9.65-2.07L8.91 0L7.93 0L10.63-7.15L11.72-7.15L14.30 0L13.24 0ZM11.09-6.09L9.96-2.93L12.19-2.93L11.13-6.09L11.09-6.09ZM16.33-7.15L19.92-1.37L19.92-7.15L20.86-7.15L20.86 0L19.77 0L16.13-5.78L16.09-5.78L16.09 0L15.16 0L15.16-7.15L16.33-7.15ZM27.58-5.08L27.58-5.08L26.68-5.08Q26.60-6.45 24.88-6.52L24.88-6.52Q23.28-6.48 23.28-5.27L23.28-5.27Q23.28-4.49 24.14-4.38L24.14-4.38L26.17-3.91Q27.77-3.52 27.77-1.95L27.77-1.95Q27.73 0.04 24.96 0.12L24.96 0.12Q23.44 0.12 22.81-0.51L22.81-0.51Q22.03-1.09 22.07-2.30L22.07-2.30L23.01-2.30Q23.05-0.66 24.96-0.63L24.96-0.63Q26.84-0.66 26.88-1.84L26.88-1.84Q27.03-2.81 25.31-3.13L25.31-3.13L23.83-3.44Q22.30-3.87 22.30-5.16L22.30-5.16Q22.42-7.27 24.80-7.34L24.80-7.34Q27.50-7.34 27.58-5.08ZM33.71-2.66L33.71-7.15L34.69-7.15L34.69-2.54Q34.57 0.04 31.76 0.12L31.76 0.12Q29.14 0.04 29.02-2.38L29.02-2.38L29.02-7.15L30-7.15L30-2.66Q30.04-0.70 31.80-0.66L31.80-0.66Q33.71-0.70 33.71-2.66L33.71-2.66ZM44.73-7.15L42.03-2.89L42.03 0L41.05 0L41.05-2.89L38.36-7.15L39.49-7.15L41.52-3.71L43.59-7.15L44.73-7.15ZM51.25-3.55L51.25-3.55Q51.09-6.37 48.75-6.52L48.75-6.52Q46.37-6.41 46.25-3.55L46.25-3.55Q46.37-0.78 48.75-0.66L48.75-0.66Q51.09-0.82 51.25-3.55ZM52.23-3.55L52.23-3.55Q51.99 0 48.75 0.12L48.75 0.12Q45.47 0 45.23-3.55L45.23-3.55Q45.43-7.27 48.75-7.34L48.75-7.34Q51.99-7.23 52.23-3.55ZM58.09-2.66L58.09-7.15L59.06-7.15L59.06-2.54Q58.95 0.04 56.13 0.12L56.13 0.12Q53.52 0.04 53.40-2.38L53.40-2.38L53.40-7.15L54.38-7.15L54.38-2.66Q54.41-0.70 56.17-0.66L56.17-0.66Q58.09-0.70 58.09-2.66L58.09-2.66ZM61.25-0.86L65.66-0.86L65.66 0L60.04 0L60.04-0.78L64.41-6.33L60.35-6.33L60.35-7.15L65.66-7.15L65.66-6.33L61.25-0.86ZM67.58-4.22L71.33-4.22L71.33-7.15L72.30-7.15L72.30 0L71.33 0L71.33-3.32L67.58-3.32L67.58 0L66.60 0L66.60-7.15L67.58-7.15L67.58-4.22ZM73.95-7.15L74.92-7.15L74.92 0L73.95 0L73.95-7.15ZM82.34-7.15L79.65-2.89L79.65 0L78.67 0L78.67-2.89L75.98-7.15L77.11-7.15L79.14-3.71L81.21-7.15L82.34-7.15ZM87.93-2.66L87.93-7.15L88.91-7.15L88.91-2.54Q88.79 0.04 85.98 0.12L85.98 0.12Q83.36 0.04 83.24-2.38L83.24-2.38L83.24-7.15L84.22-7.15L84.22-2.66Q84.26-0.70 86.02-0.66L86.02-0.66Q87.93-0.70 87.93-2.66L87.93-2.66ZM91.56-7.15L95.16-1.37L95.16-7.15L96.09-7.15L96.09 0L95 0L91.37-5.78L91.33-5.78L91.33 0L90.39 0L90.39-7.15L91.56-7.15Z" transform="translate(-0.46875, 7.34375)"></path></g></g></g></g></g></g><mask id="ed75f8ee-9b3a-4664-92ca-0b4d759ef806"><g fill="white"><g><rect fill-opacity="1" stroke-width="2" x="0" y="0" width="95" height="99.2706221655625" class="image-rect"></rect> <svg x="0" y="0" width="95" height="99.2706221655625" filtersec="colorsb2614064365" class="image-svg-svg primary" style="overflow: visible;"><svg viewBox="0 0.531999945640564 190.4739990234375 199.03599548339844" xmlns="http://www.w3.org/2000/svg"><g fill="none" fill-rule="evenodd"><path d="M116.992 179.84c-42.441-1.885-76.273-36.885-76.273-79.791 0-42.907 33.832-77.907 76.273-79.79a80.94 80.94 0 0 0-3.64-.086c-44.114 0-79.875 35.762-79.875 79.876 0 44.114 35.761 79.875 79.875 79.875 1.22 0 2.433-.03 3.64-.084"></path><path d="M113.436 187.04c-48.044 0-86.99-38.947-86.99-86.99 0-48.045 38.946-86.992 86.99-86.992 33.448 0 62.48 18.88 77.038 46.56C174.976 24.806 140.084.532 99.518.532 44.555.531 0 45.087 0 100.05s44.555 99.518 99.518 99.518c40.566 0 75.458-24.274 90.956-59.088-14.557 27.681-43.59 46.561-77.038 46.561"></path></g></svg></svg> </g></g> <g transform="translate(41.6199951171875,32.02343559265137)" fill="black" stroke="black" stroke-width="6" stroke-linejoin="round"><g data-gra="path-name" fill-rule="" class="tp-name" transform="translate(0,0)"><g transform="scale(1)"><g><path d="M34.88-22.86L34.88-20.88 30.42-20.88 30.42 3.64Q30.42 4.57 29.79 5.2 29.16 5.83 28.22 5.83L28.22 5.83 7.78 5.83Q6.84 5.83 6.21 5.2 5.58 4.57 5.58 3.64L5.58 3.64 5.58-20.88 1.12-20.88 1.12-22.86 5.58-22.86 5.58-27.68 11.27-27.68 11.27-22.86 24.73-22.86 24.73-27.68 30.42-27.68 30.42-22.86 34.88-22.86ZM24.73-9.5L24.73-20.88 11.27-20.88 11.27-9.5 24.73-9.5ZM11.81 3.85L24.19 3.85Q24.41 3.85 24.57 3.69 24.73 3.53 24.73 3.31L24.73 3.31 24.73-7.52 11.27-7.52 11.27 3.31Q11.27 3.53 11.43 3.69 11.59 3.85 11.81 3.85L11.81 3.85ZM68.08-18.36L70.52-18.36 70.52-16.34 68.08-16.34 68.08-12.6Q68.08-11.66 67.45-11.03 66.82-10.4 65.88-10.4L65.88-10.4 56.48-10.4 56.48 6.08 50.8 6.08 50.8-10.4 39.85-10.4 39.85-12.42 50.8-12.42 50.8-16.34 38.2-16.34 38.2-18.36 50.8-18.36 50.8-22.28 39.85-22.28 39.85-24.3 50.8-24.3 50.8-27.68 56.48-27.68 56.48-24.3 65.88-24.3Q66.82-24.3 67.45-23.67 68.08-23.04 68.08-22.1L68.08-22.1 68.08-18.36ZM56.48-22.28L56.48-18.36 62.39-18.36 62.39-21.74Q62.39-21.96 62.23-22.12 62.06-22.28 61.85-22.28L61.85-22.28 56.48-22.28ZM62.39-12.96L62.39-16.34 56.48-16.34 56.48-12.42 61.85-12.42Q62.06-12.42 62.23-12.58 62.39-12.74 62.39-12.96L62.39-12.96ZM39.71-8.78L45.14-8.78 43.92 2.48Q43.85 3.31 43.34 3.92 42.84 4.54 42.01 4.75L42.01 4.75 37.12 6.08 37.12 4.07 37.94 3.85Q38.34 3.74 38.41 3.28L38.41 3.28 39.71-8.78ZM63.07 6.08L63.07-8.78 68.51-8.78 68.51 6.08 63.07 6.08ZM45.04 3.96L46.08-7.49 49.97-7.49 48.92 3.96 45.04 3.96ZM57.24-7.49L61.13-7.49 62.17 3.96 58.28 3.96 57.24-7.49ZM104.11 3.42L106.88 4.07 106.88 6.08 99.14 4.75Q97.56 4.46 96.52 3.2L96.52 3.2 94 0.22 91.69 3.1Q90.72 4.32 89.1 4.64L89.1 4.64 81.61 6.08 81.61 4.07 83.95 3.56Q84.49 3.46 84.78 3.06L84.78 3.06 90.5-4 83.45-12.42 80.78 2.02Q80.57 3.24 79.72 4.09 78.88 4.93 77.65 5.18L77.65 5.18 73.12 6.08 73.12 4.07 73.91 3.89Q74.3 3.82 74.56 3.53 74.81 3.24 74.88 2.84L74.88 2.84 79.6-22.39 73.4-22.39 73.4-24.41 79.96-24.41 80.57-27.68 86.26-27.68 85.64-24.41 106.52-24.41 106.52-22.39 85.28-22.39 84.38-17.53 103.21-17.53Q104.04-17.53 104.65-17.15 105.26-16.78 105.53-16.2 105.8-15.62 105.73-14.92 105.66-14.22 105.12-13.57L105.12-13.57 97.38-4 103.32 2.95Q103.61 3.28 104.11 3.42L104.11 3.42ZM89.03-13.79L93.85-8.14 99.18-14.72Q99.4-14.98 99.27-15.25 99.14-15.52 98.82-15.52L98.82-15.52 84.02-15.52 83.7-13.79 89.03-13.79ZM115.16-8.39L109.12-8.39 114.8-16.24 109.15-16.24 109.15-18.25 115.99-18.25 115.99-23.65 115.6-23.65 114.48-20.3 109.15-20.3 111.67-27.68 116.96-27.68 116.28-25.67 126.61-25.67 126.61-23.65 121.68-23.65 121.68-18.25 127.69-18.25 127.69-16.24 121.07-16.24 119.81-14.54 123.52-14.54 127.69-8.39 122-8.39 118.76-13.18 115.16-8.39ZM130.75-26.86L140.15-26.86Q141.08-26.86 141.71-26.24 142.34-25.63 142.34-24.66L142.34-24.66 142.34-10.84Q142.34-9.9 141.71-9.27 141.08-8.64 140.15-8.64L140.15-8.64 130.75-8.64Q129.82-8.64 129.19-9.27 128.56-9.9 128.56-10.84L128.56-10.84 128.56-24.66Q128.56-25.63 129.19-26.24 129.82-26.86 130.75-26.86L130.75-26.86ZM137.38-11.2L137.38-24.3Q137.38-24.52 137.21-24.68 137.05-24.84 136.84-24.84L136.84-24.84 134.06-24.84Q133.85-24.84 133.69-24.68 133.52-24.52 133.52-24.3L133.52-24.3 133.52-11.2Q133.52-10.98 133.69-10.82 133.85-10.66 134.06-10.66L134.06-10.66 136.84-10.66Q137.05-10.66 137.21-10.82 137.38-10.98 137.38-11.2L137.38-11.2ZM113.65-6.84L138.31-6.84Q139.25-6.84 139.88-6.23 140.51-5.62 140.51-4.64L140.51-4.64 140.51 3.53Q140.51 4.5 139.88 5.11 139.25 5.72 138.31 5.72L138.31 5.72 113.65 5.72Q112.72 5.72 112.09 5.11 111.46 4.5 111.46 3.53L111.46 3.53 111.46-4.64Q111.46-5.62 112.09-6.23 112.72-6.84 113.65-6.84L113.65-6.84ZM134.42-4.82L117.58-4.82Q117.36-4.82 117.2-4.66 117.04-4.5 117.04-4.28L117.04-4.28 117.04-1.58 134.96-1.58 134.96-4.28Q134.96-4.5 134.8-4.66 134.64-4.82 134.42-4.82L134.42-4.82ZM117.58 3.71L134.42 3.71Q134.64 3.71 134.8 3.55 134.96 3.38 134.96 3.17L134.96 3.17 134.96 0.43 117.04 0.43 117.04 3.17Q117.04 3.38 117.2 3.55 117.36 3.71 117.58 3.71L117.58 3.71ZM176.9-27.14L176.9-25.13 147.13-25.13 147.13-27.14 176.9-27.14ZM178.88 6.08L173.2 6.08 172.76 4.39 149 5.76Q148.28 5.8 147.8 5.53 147.31 5.26 147.04 4.79 146.77 4.32 146.74 3.71 146.7 3.1 146.88 2.45L146.88 2.45 150.77-11.3 145.84-11.3 145.84-13.32 178.16-13.32 178.16-11.3 156.46-11.3 152.46 2.77Q152.39 3.06 152.5 3.26 152.6 3.46 152.89 3.42L152.89 3.42 172.26 2.38 169.49-8.42 175.18-8.42 178.88 6.08Z" transform="translate(-1.1200000047683716, 27.68000030517578)"></path></g>       </g></g> <g data-gra="path-slogan" fill-rule="" class="tp-slogan" transform="translate(5,38.76000213623047)"><rect x="0" height="1" y="3.2300000190734863" width="35.0693473815918"></rect> <rect height="1" y="3.2300000190734863" width="31.069347381591797" x="136.6906623840332"></rect> <g transform="translate(38.0693473815918,0)"><g transform="scale(1)"><path d="M6.09-3.01L3.91-3.01L3.91-3.83L7.03-3.83L7.03 0L6.41 0L6.17-0.90Q5.35 0.08 3.83 0.12L3.83 0.12Q2.38 0.12 1.60-0.63L1.60-0.63Q0.43-1.72 0.47-3.63L0.47-3.63Q0.74-7.19 3.87-7.34L3.87-7.34Q6.52-7.19 6.91-5L6.91-5L5.98-5Q5.59-6.48 3.83-6.52L3.83-6.52Q1.60-6.37 1.48-3.59L1.48-3.59Q1.48-0.63 3.87-0.63L3.87-0.63Q4.73-0.63 5.35-1.09L5.35-1.09Q6.13-1.72 6.09-3.01L6.09-3.01ZM13.24 0L12.54-2.07L9.65-2.07L8.91 0L7.93 0L10.63-7.15L11.72-7.15L14.30 0L13.24 0ZM11.09-6.09L9.96-2.93L12.19-2.93L11.13-6.09L11.09-6.09ZM16.33-7.15L19.92-1.37L19.92-7.15L20.86-7.15L20.86 0L19.77 0L16.13-5.78L16.09-5.78L16.09 0L15.16 0L15.16-7.15L16.33-7.15ZM27.58-5.08L27.58-5.08L26.68-5.08Q26.60-6.45 24.88-6.52L24.88-6.52Q23.28-6.48 23.28-5.27L23.28-5.27Q23.28-4.49 24.14-4.38L24.14-4.38L26.17-3.91Q27.77-3.52 27.77-1.95L27.77-1.95Q27.73 0.04 24.96 0.12L24.96 0.12Q23.44 0.12 22.81-0.51L22.81-0.51Q22.03-1.09 22.07-2.30L22.07-2.30L23.01-2.30Q23.05-0.66 24.96-0.63L24.96-0.63Q26.84-0.66 26.88-1.84L26.88-1.84Q27.03-2.81 25.31-3.13L25.31-3.13L23.83-3.44Q22.30-3.87 22.30-5.16L22.30-5.16Q22.42-7.27 24.80-7.34L24.80-7.34Q27.50-7.34 27.58-5.08ZM33.71-2.66L33.71-7.15L34.69-7.15L34.69-2.54Q34.57 0.04 31.76 0.12L31.76 0.12Q29.14 0.04 29.02-2.38L29.02-2.38L29.02-7.15L30-7.15L30-2.66Q30.04-0.70 31.80-0.66L31.80-0.66Q33.71-0.70 33.71-2.66L33.71-2.66ZM44.73-7.15L42.03-2.89L42.03 0L41.05 0L41.05-2.89L38.36-7.15L39.49-7.15L41.52-3.71L43.59-7.15L44.73-7.15ZM51.25-3.55L51.25-3.55Q51.09-6.37 48.75-6.52L48.75-6.52Q46.37-6.41 46.25-3.55L46.25-3.55Q46.37-0.78 48.75-0.66L48.75-0.66Q51.09-0.82 51.25-3.55ZM52.23-3.55L52.23-3.55Q51.99 0 48.75 0.12L48.75 0.12Q45.47 0 45.23-3.55L45.23-3.55Q45.43-7.27 48.75-7.34L48.75-7.34Q51.99-7.23 52.23-3.55ZM58.09-2.66L58.09-7.15L59.06-7.15L59.06-2.54Q58.95 0.04 56.13 0.12L56.13 0.12Q53.52 0.04 53.40-2.38L53.40-2.38L53.40-7.15L54.38-7.15L54.38-2.66Q54.41-0.70 56.17-0.66L56.17-0.66Q58.09-0.70 58.09-2.66L58.09-2.66ZM61.25-0.86L65.66-0.86L65.66 0L60.04 0L60.04-0.78L64.41-6.33L60.35-6.33L60.35-7.15L65.66-7.15L65.66-6.33L61.25-0.86ZM67.58-4.22L71.33-4.22L71.33-7.15L72.30-7.15L72.30 0L71.33 0L71.33-3.32L67.58-3.32L67.58 0L66.60 0L66.60-7.15L67.58-7.15L67.58-4.22ZM73.95-7.15L74.92-7.15L74.92 0L73.95 0L73.95-7.15ZM82.34-7.15L79.65-2.89L79.65 0L78.67 0L78.67-2.89L75.98-7.15L77.11-7.15L79.14-3.71L81.21-7.15L82.34-7.15ZM87.93-2.66L87.93-7.15L88.91-7.15L88.91-2.54Q88.79 0.04 85.98 0.12L85.98 0.12Q83.36 0.04 83.24-2.38L83.24-2.38L83.24-7.15L84.22-7.15L84.22-2.66Q84.26-0.70 86.02-0.66L86.02-0.66Q87.93-0.70 87.93-2.66L87.93-2.66ZM91.56-7.15L95.16-1.37L95.16-7.15L96.09-7.15L96.09 0L95 0L91.37-5.78L91.33-5.78L91.33 0L90.39 0L90.39-7.15L91.56-7.15Z" transform="translate(-0.46875, 7.34375)"></path></g></g></g></g></mask><defs v-gra="od"></defs></svg>